<svg width="86" height="85" viewBox="0 0 86 85" fill="none" xmlns="http://www.w3.org/2000/svg">
<path d="M55.3361 3.56996C47.0079 0.810012 38.0115 0.810012 29.6833 3.56996C21.4847 6.26471 14.3461 11.4791 9.28538 18.4696C4.22461 25.4601 1.5 33.8699 1.5 42.5C1.5 51.1301 4.22461 59.5399 9.28538 66.5304C14.3461 73.5209 21.4847 78.7353 29.6833 81.43C38.0115 84.19 47.0079 84.19 55.3361 81.43C63.529 78.73 70.6609 73.5134 75.7158 66.5233C80.7707 59.5333 83.4908 51.1263 83.4887 42.5C83.4908 33.8737 80.7707 25.4667 75.7158 18.4767C70.6609 11.4866 63.529 6.27 55.3361 3.56996ZM55.3361 81.43C63.5347 78.7353 70.6733 73.5209 75.7341 66.5304C80.7948 59.5399 83.5195 51.1301 83.5195 42.5C83.5195 33.8699 80.7948 25.4601 75.7341 18.4696C70.6733 11.4791 63.5347 6.26471 55.3361 3.56996" stroke="black" stroke-width="3" stroke-linecap="round" stroke-linejoin="round"/>
<path d="M42.5098 3.57031V81.4304" stroke="black" stroke-width="3" stroke-linecap="round" stroke-linejoin="round"/>
<path d="M11.3242 15.8642C15.1431 17.7938 19.1358 19.3579 23.2491 20.5358C29.5037 22.3772 35.9892 23.3155 42.5092 23.3224C48.8497 23.3191 55.1591 22.4365 61.2571 20.6998C65.4993 19.4733 69.6156 17.8474 73.5508 15.8438M12.0004 69.854C15.7627 68.0056 19.6856 66.5036 23.7204 65.3669C40.1129 60.7769 57.6227 62.3966 72.8951 69.9155" stroke="black" stroke-width="3" stroke-linecap="round" stroke-linejoin="round"/>
<path d="M3.58008 42.5H81.4402" stroke="black" stroke-width="3" stroke-linecap="round" stroke-linejoin="round"/>
<path d="M53.7586 3.57031L54.0865 4.14402C60.8745 15.7199 64.4529 28.8966 64.4529 42.3159C64.4529 55.7353 60.8745 68.9119 54.0865 80.4879M30.7284 3.57031L30.4006 4.14402C23.6199 15.7262 20.0543 28.9088 20.0723 42.3299C20.0903 55.751 23.6912 68.9239 30.5031 80.4879" stroke="black" stroke-width="3" stroke-linecap="round" stroke-linejoin="round"/>
</svg>
