<svg width="80" height="80" viewBox="0 0 80 80" fill="none" xmlns="http://www.w3.org/2000/svg">
<path d="M72.0376 6.45816C73.1114 6.42035 73.8579 7.33914 73.4423 8.28933C73.2489 8.7314 72.1907 9.69636 71.811 10.0762L69.4907 12.3956L67.6723 14.2129C67.1173 14.7685 66.7454 15.2715 65.9977 15.5658C65.3091 15.6214 64.6341 15.2357 64.4735 14.5365C64.3926 14.1721 64.4661 13.7904 64.6766 13.4822C64.8758 13.1932 65.5235 12.5726 65.8028 12.293L67.8544 10.2404L70.1739 7.9223C70.577 7.51961 70.995 7.0864 71.4196 6.70773C71.577 6.5675 71.8344 6.49816 72.0376 6.45816Z" fill="black"/>
<path d="M39.8125 6.45746C40.277 6.43852 40.6121 6.52887 40.9469 6.85676C43.0754 8.94207 45.1691 11.0566 47.2723 13.1693C47.7777 13.6772 47.957 14.2774 47.5543 14.9429C47.3473 15.285 47.0176 15.4341 46.6566 15.5664C46.1777 15.5922 45.7836 15.458 45.4371 15.1106C43.343 13.0091 41.232 10.923 39.1488 8.81106C39.0166 8.67723 38.8127 8.43977 38.7433 8.2625C38.4835 7.38063 38.9306 6.64508 39.8125 6.45746Z" fill="black"/>
<path d="M65.5467 32.2407C66.0412 32.2161 66.3728 32.2889 66.7334 32.6431C68.8396 34.7121 70.9221 36.8079 73.006 38.899C73.1205 39.0475 73.3811 39.2694 73.4416 39.4467C73.7701 40.4073 73.31 41.0089 72.4525 41.3401C72.142 41.3663 71.8869 41.3264 71.6119 41.1721C71.0471 40.8557 69.0193 38.6896 68.4338 38.1044L66.1334 35.8074C65.7068 35.3814 65.2881 34.9523 64.8662 34.5224C64.0709 33.7119 64.4342 32.5253 65.5467 32.2407Z" fill="black"/>
<path d="M0 55.5552C0.180627 55.0641 0.205318 54.288 0.303549 53.752C0.544805 52.4368 0.921684 51.1505 1.42815 49.913C2.10877 48.261 3.42359 45.9259 4.2786 44.2923L9.44258 34.4322L13.4526 26.7765L14.6352 24.5142C14.9235 23.9616 15.2347 23.3316 15.5845 22.8245C16.2075 21.9177 17.0556 21.1883 18.0453 20.7079C19.645 19.9107 21.4981 19.79 23.1877 20.3731C24.8595 20.9559 26.2277 22.185 26.9858 23.785C27.4549 24.7708 27.6713 25.8578 27.6158 26.9481C27.5608 28.1128 27.2094 28.9848 26.9302 30.0839C26.5261 31.6753 25.9684 33.3578 25.5866 34.9437C27.5757 33.8449 29.5847 32.6777 31.5659 31.5559L43.775 24.6459L48.3996 22.0288C49.2598 21.5421 50.5887 20.7301 51.4696 20.4249C52.6469 20.0178 53.9211 19.9854 55.1176 20.3321C56.6824 20.7726 58.0028 21.8272 58.7781 23.2562C60.1406 25.7573 59.4864 28.8435 57.3922 30.7293C56.7008 31.3517 55.786 31.8219 54.9762 32.2809L52.4492 33.7102C50.602 34.7546 48.75 35.8065 46.9012 36.8494C46.8403 36.8839 46.7481 36.9221 46.6824 36.9487C48.257 37.8814 49.3582 39.0158 49.832 40.8434C50.2285 42.4079 49.9848 44.0657 49.1555 45.4501C48.7942 46.061 48.2613 46.7075 47.6977 47.1427C49.291 48.0388 50.4071 49.1149 50.9227 50.9364C51.3571 52.5028 51.1488 54.1774 50.3449 55.5899C49.9137 56.354 49.4621 56.8438 48.8254 57.4356C50.134 57.9712 51.2637 59.2259 51.8113 60.5165C52.4305 61.9872 52.436 63.6442 51.8274 65.1192C51.402 66.1587 50.7117 67.0688 49.825 67.7587C49.159 68.2806 47.9067 68.9434 47.1324 69.3821L42.5914 71.947L35.8653 75.7509C34.239 76.6708 32.6071 77.6556 30.8822 78.3747C29.5072 78.9481 28.1456 79.3489 26.6872 79.6485C26.2503 79.7384 24.6891 79.8767 24.3996 79.9997H20.9888C20.6248 79.8696 19.1143 79.7259 18.6049 79.6235C16.9344 79.288 15.4363 78.8224 13.8764 78.1368C10.2864 76.5524 7.20039 74.0126 4.95473 70.7946C4.26586 69.8099 3.75292 68.8845 3.16409 67.8435C2.34828 66.4009 1.58992 65.0528 1.0584 63.4727C0.741117 62.5919 0.532656 61.6977 0.332614 60.7864C0.220982 60.2778 0.194254 59.2462 0 58.8161V55.5552ZM40.3387 51.4466L38.0623 52.738C37.5867 53.0075 37.0959 53.3188 36.5857 53.5075C36.3283 53.6028 35.9363 53.5153 35.7044 53.3907C35.0679 53.0489 34.8394 52.4876 35.0477 51.795C35.22 51.2223 35.6016 51.0399 36.087 50.7653C36.5116 50.5313 36.942 50.2954 37.3656 50.0532L42.1895 47.3247L44.1723 46.2016C44.9102 45.7833 45.841 45.3208 46.4035 44.6958C47.3238 43.6727 47.6336 42.152 47.0176 40.8966C46.6281 40.0973 45.9344 39.4872 45.0918 39.2024C44.2106 38.9133 43.1586 38.9864 42.3442 39.4348C41.4567 39.9239 40.5762 40.4247 39.6942 40.9239L34.8301 43.6747C34.2957 43.9751 33.7631 44.2782 33.2321 44.5845C32.8651 44.7958 32.5191 45.0079 32.1385 45.1782C31.0658 45.6591 29.9573 44.5247 30.391 43.4845C30.7137 42.7102 32.2774 42.0477 32.995 41.6434L37.0847 39.3247L50.2602 31.8744L52.9367 30.3601C53.8301 29.8543 55.2504 29.156 55.9094 28.4233C56.7598 27.4771 57.0707 26.0241 56.5742 24.8253C56.2321 24.0106 55.5797 23.3657 54.761 23.0332C52.8125 22.2425 51.3406 23.4434 49.7235 24.3573L45.0781 26.9828L29.8918 35.578L25.8554 37.8599C25.4323 38.0997 24.2044 38.8318 23.818 38.9707C23.5333 39.0708 23.2219 39.063 22.9425 38.9492C21.5567 38.3925 22.2675 36.8453 22.5621 35.8143L24.0543 30.4467C24.3403 29.418 24.6421 28.3908 24.8793 27.3498C25.4241 24.9583 23.2422 22.3869 20.7646 22.7097C19.0239 22.8807 18.0404 23.67 17.2726 25.2171C16.9239 25.9197 16.5272 26.6433 16.1617 27.3402L12.8402 33.6873L6.94512 44.9427L5.22699 48.22C4.57961 49.454 4.03559 50.4388 3.57678 51.7606C2.80434 53.9876 2.51708 56.354 2.73428 58.7013C2.93835 60.7501 3.4834 62.7462 4.42574 64.5806C6.10129 67.8427 7.76594 70.6872 10.6394 73.0372C14.567 76.2399 19.6086 77.7466 24.6495 77.2239C28.4065 76.8442 30.6595 75.6165 33.8583 73.8071L38.6253 71.1099L44.5961 67.7349C45.6508 67.1392 46.7121 66.5513 47.7547 65.9341C48.1266 65.7138 48.4555 65.4454 48.7375 65.111C50.766 62.7048 48.9645 59.1809 45.8031 59.5513C44.5356 59.7298 43.4629 60.6477 42.3406 61.2091C41.9363 61.411 41.675 61.6411 41.2067 61.7446C39.9531 62.0216 39.1621 60.5157 39.952 59.5864C40.2668 59.2161 40.9996 58.8891 41.4496 58.6337L44.6203 56.8384C46.4629 55.7989 48.5996 54.9204 48.4621 52.3481C48.4145 51.4923 48.0254 50.6911 47.382 50.1243C46.6738 49.4903 45.8192 49.2321 44.8789 49.2919C44.5305 49.3106 44.1867 49.3829 43.8606 49.5063C43.4195 49.6751 42.8574 50.0169 42.432 50.2587L40.3387 51.4466Z" fill="black"/>
<path d="M80.0001 24.2975C79.3794 25.5669 78.693 25.3466 77.4317 25.3454L75.193 25.3457L71.5368 25.3465C70.8336 25.3465 69.343 25.4338 68.7001 25.1863C68.1501 24.9747 67.8872 24.1961 68.0688 23.6231C68.2731 22.9797 68.6825 22.7177 69.3829 22.6688C70.3223 22.6452 71.3024 22.6674 72.2458 22.6663L76.2219 22.6621C77.0508 22.6615 78.3044 22.6063 79.1012 22.7521C79.5313 22.8307 79.8114 23.3154 80.0001 23.682V24.2975Z" fill="black"/>
<path d="M55.6303 0H56.3495C56.5479 0.140634 56.9495 0.322035 57.0702 0.52618C57.471 1.20579 57.3425 2.64278 57.3421 3.39439L57.3354 7.1625C57.3339 7.91153 57.3366 8.66055 57.3432 9.40953C57.3483 10.2073 57.4815 11.2543 56.7366 11.7722C56.4538 11.9712 56.1022 12.0471 55.762 11.9826C55.1026 11.8591 54.712 11.3822 54.6893 10.7257C54.6686 10.1333 54.6698 9.55297 54.6698 8.96071V5.84442L54.6706 3.00595C54.6706 2.33142 54.626 1.52258 54.7542 0.867922C54.8346 0.457703 55.294 0.193443 55.6303 0Z" fill="black"/>
</svg>
