<svg width="85" height="85" viewBox="0 0 85 85" fill="none" xmlns="http://www.w3.org/2000/svg">
<path d="M30.2 1.5H5.6C3.33563 1.5 1.5 3.33563 1.5 5.6V30.2C1.5 32.4644 3.33563 34.3 5.6 34.3H30.2C32.4644 34.3 34.3 32.4644 34.3 30.2V5.6C34.3 3.33563 32.4644 1.5 30.2 1.5Z" stroke="black" stroke-width="3" stroke-linecap="round" stroke-linejoin="round"/>
<path d="M30.2 50.7002H5.6C3.33563 50.7002 1.5 52.5358 1.5 54.8002V79.4002C1.5 81.6646 3.33563 83.5002 5.6 83.5002H30.2C32.4644 83.5002 34.3 81.6646 34.3 79.4002V54.8002C34.3 52.5358 32.4644 50.7002 30.2 50.7002Z" stroke="black" stroke-width="3" stroke-linecap="round" stroke-linejoin="round"/>
<path d="M79.4002 1.5H54.8002C52.5358 1.5 50.7002 3.33563 50.7002 5.6V30.2C50.7002 32.4644 52.5358 34.3 54.8002 34.3H79.4002C81.6646 34.3 83.5002 32.4644 83.5002 30.2V5.6C83.5002 3.33563 81.6646 1.5 79.4002 1.5Z" stroke="black" stroke-width="3" stroke-linecap="round" stroke-linejoin="round"/>
<path d="M50.7002 50.7002V67.1002" stroke="black" stroke-width="3" stroke-linecap="round" stroke-linejoin="round"/>
<path d="M50.7002 83.5002H67.1002V50.7002" stroke="black" stroke-width="3" stroke-linecap="round" stroke-linejoin="round"/>
<path d="M67.0996 58.9004H83.4996" stroke="black" stroke-width="3" stroke-linecap="round" stroke-linejoin="round"/>
<path d="M83.5 75.2998V83.4998" stroke="black" stroke-width="3" stroke-linecap="round" stroke-linejoin="round"/>
</svg>
